<?xml version="1.0" encoding="utf-8"?>
<!-- Generator: Adobe Illustrator 18.0.0, SVG Export Plug-In . SVG Version: 6.00 Build 0)  -->
<!DOCTYPE svg PUBLIC "-//W3C//DTD SVG 1.1//EN" "http://www.w3.org/Graphics/SVG/1.1/DTD/svg11.dtd">
<svg version="1.1" id="elina-och-viktor" xmlns="http://www.w3.org/2000/svg" xmlns:xlink="http://www.w3.org/1999/xlink" x="0px" y="0px"
	 viewBox="0 0 260.4 53.9" enable-background="new 0 0 260.4 53.9" xml:space="preserve">
<g>
	<path data-start="0" data-duration="2" fill="#BEAA8B" d="M36.8,34.1c-1.3,2.4-7.1,14-15.9,15.9c-1.2,0.2-2.4,0.4-3.6,0.4c-4.9,0-7.4-4.7-7.4-8.9
		c0-5.7,4.7-13.1,12.2-14.6c-1.6-1.4-2.8-4-3.2-6.8c-2.1-0.5-4.7-0.9-8.2-0.9c-6.8,0-9.7,3.4-9.7,7.5c0,4.3,5,4.7,5.3,5.3
		c0.4,0.5-0.5,1.1-1.2,1.1C4.1,33.1,0,31,0,26.8c0-4.6,3.2-8.3,10.7-8.3c3.3,0,5.9,0.3,8.1,0.7c-0.5-5.4,2-9.6,7.5-9.6
		c3.8,0,5.4,2,5.4,4.7c0,4.1-3.6,6.7-9.2,6.2c0.3,2.9,1.4,5.6,3,7.4c0.2,0.2,0,0.5-0.2,0.5c-0.1,0-0.6-0.2-0.7-0.2
		c-5.3-1.1-12.5,7-11.3,15.9c0.5,2.8,2,4.7,5.4,4.7c0.9,0,1.9-0.1,2.7-0.3c7.4-2.1,13.3-12.3,14.8-15C36.5,33.7,36.7,33.9,36.8,34.1
		z M22.4,19.5c9.8,0.3,10-8.8,4.9-8.8C23.4,10.7,22.2,15.6,22.4,19.5z"/>
	<path data-start="2" data-duration="2"  fill="#BEAA8B" d="M50,34.1c0,0.1-0.1,0.2-0.2,0.3c-2.5,4.1-5.6,13.1-10.3,13.1c-6.6,0-4.7-11.6-3.3-17.8
		c1.2-4.6,4.7-17.4,9.5-17.4c1.2,0,2.2,0.9,2.2,2.3c0,6.1-5.9,13.6-9.2,18.3c-2.2,8.6-1.4,13.8,1.1,13.8c3.3,0,7.7-10.4,9.5-13.1
		C49.7,33.8,50,33.9,50,34.1z M39.1,31c2.8-4.6,8-11,8-16.3c0-0.7-0.5-1-0.8-1C44.8,13.8,42.8,19,39.1,31z"/>
	<path data-start="4" data-duration="2" fill="#BEAA8B" d="M61.8,34.5c-1.8,3.4-7.5,12-11.3,11.9c-3.5-0.1-4.4-6.1-0.3-15.2c0.4-0.8,2.4,0.4,3.2,0.8
		c-0.9,2.2-5.3,13.5-2.6,13.5c3,0.1,9-9,10.5-12.1C61.9,34,62.1,34,61.8,34.5z M51.9,26.6c0-0.9,0.7-1.5,1.6-1.4
		c0.9,0.2,1.6,0.9,1.6,1.8c0,0.8-0.8,1.4-1.7,1.3C52.5,28.2,51.9,27.4,51.9,26.6z"/>
	<path data-start="6" data-duration="2"  fill="#BEAA8B" d="M82,34.3C76.3,44.3,73.3,53,69,53c-1.7,0-2.3-1.3-2.3-2.9c0-5.8,5.5-20.1,3.2-20.1
		c-2.4,0-7.7,13.6-8.6,14.6c-0.5,0.2-2.6-0.8-2.6-1.4c1.4-2.6,2.6-7.4,2.6-9.2c0-0.5-0.1-0.6-0.1-0.7c0.8-1.3,2.4-0.5,2.7,0.8
		c0.4,1.3-0.5,3.6-0.8,4.6c2-3.7,4.8-9.8,7.3-9.8c2.1,0,2.9,1.2,2.9,3.5c0,5.5-4.4,17.1-3.8,19c0.3,0.8,1.1,0.2,1.6-0.3
		c3.3-3.6,9.2-15.9,10.4-17.6C82.2,34,82.2,33.8,82,34.3z"/>
	<path data-start="8" data-duration="2"  fill="#BEAA8B" d="M123.4,19.4c-6.3-0.9-11.6,3.2-12.7,8.3c2.1,0.1,4.1,1.1,5.5,2.5c3,3.2,1.7,7.1-1.6,6.7
		c-2.6-0.4-5.5-3.4-5-8.3c-1.1,0.1-2.3,0.5-3.3,1.3c-3.8,2.6-10.4,18.7-15.5,18.7c-5.3,0-2.3-9.8-2-10.9l0.8-2.5
		c-1.6,2.6-4.3,8.1-6.5,8.1c-2.1,0-3.7-1.7-3.7-5.1c0-4.2,3.1-10.2,7.3-10.2c1.5,0,3.3,0.7,3.3,2.3c0,1.4-1.2,2.8-1.5,2.8
		c-0.2,0-0.3-0.3-0.2-0.5c0.3-0.4,1.1-1.1,1.1-2.2c0-0.5-0.4-0.9-1.1-0.9c-5.5,0-7.4,13-5,13c1.7,0,5.9-8.6,7.4-10
		c0.8-0.8,2-1.4,3-0.8l0.6,0.3c-0.9,2.3-5.9,15.8-3.3,15.8c4.1,0,11.2-16.1,14.8-18.6c1.2-0.8,2.6-1.4,4-1.4
		c1.1-5.8,6.8-10.2,13.8-9.2 M110.5,28.6c-0.5,4.4,2,7.1,4.2,7.4c2.6,0.4,3-2.8,0.8-5.1C114.3,29.5,112.5,28.7,110.5,28.6z"/>
	<path data-start="10" data-duration="2"  fill="#BEAA8B" d="M186.6,34.5c-1.8,3.4-7.5,12-11.3,11.9c-3.5-0.1-4.4-6.1-0.3-15.2c0.4-0.8,2.4,0.4,3.2,0.8
		c-0.9,2.2-5.3,13.5-2.6,13.5c3,0.1,9-9,10.5-12.1C186.7,34,186.9,34,186.6,34.5z M176.7,26.6c0-0.9,0.7-1.5,1.6-1.4
		c0.9,0.2,1.6,0.9,1.6,1.8c0,0.8-0.8,1.4-1.7,1.3C177.3,28.2,176.7,27.4,176.7,26.6z"/>
	<path data-start="12" data-duration="2"  fill="#BEAA8B" d="M207.5,34c0,0.1-0.1,0.2-0.2,0.3c-0.2,0.4-0.5,1.1-1,1.7c-1.9,3.5-5.9,10.9-8.3,14.1
		c-1.1,1.4-2.2,2.3-3.4,2.3c-4.7,0-3.4-7.2-5.9-10.6c-0.2-0.4-0.1-0.8,0.3-1c4.4-1.4,10.1-9.3,6.3-9.3c-1.5,0-6.2,6.8-7.7,9.7
		l-0.5,0.6c-0.3,2.3-0.8,5.9-0.4,8.1c-1.4,0.3-2.6-0.8-2.7-1.9c-0.2-0.8-0.2-1.7-0.2-2.7c0-8.1,5.4-33.1,11.9-33.1
		c1.2,0,2.3,0.9,2.3,2.4c0,6.5-5.9,13.6-9.2,18.3c-0.6,2.3-1.1,4.1-1.4,6.4c2.5-4.1,5.8-9.1,8.3-9.1c1.6,0,2.6,0.9,2.6,2.9
		c0,2.6-3.8,6.8-6.9,7.4c-0.3,0-0.4,0.4-0.2,0.6c2.9,2.5,1.9,9.7,4.1,9.7c0.6,0,1.2-0.4,1.9-1.3c2.3-3,6.4-10.4,8.3-13.9
		c0.6-1.1,1-1.9,1.2-2.2C207.3,33.8,207.5,33.9,207.5,34z M189.4,31c2.9-4.6,8-10.7,8-16.3c0-0.6-0.5-1-0.8-1
		C195.1,13.7,193,19.1,189.4,31z"/>
	<path data-start="14" data-duration="2"  fill="#BEAA8B" d="M225.6,18.4c-0.3,0.8-0.7,1.5-1.4,2.3c-1.6,1.5-3.8,1.8-6,1.7c-2.1-0.2-3.7-0.6-5.4-1.1
		c-1.5,5.8-5.3,21.6-4.8,30.1c0.1,1.1,0.4,1.4,0.8,1.4c1.4,0,3.8-9.1,10.9-19.3c0.5,0.5,0.8,0.5,0.5,0.9
		c-7.1,10.1-8.7,19.5-11.6,19.5c-6.6,0-1.9-23.7,0.8-33.5c-2.1-0.5-8-1.3-8,0.8c0,0.4-0.2,0.7-0.6,0.7c0,0,0,0-0.1,0
		c-0.6,0-1.1-0.8,0.5-1.8c2-1.4,6-0.9,8.4-0.5c0.2-0.7,0.4-1.3,0.5-1.8c0.5-1.6,2.4,0.5,3.3,1.1c-0.1,0.5-0.3,1.1-0.4,1.6
		c1.7,0.5,3.2,0.9,5.3,1c2.6,0.2,5.9-0.5,6.1-3.2c0-0.4,0.3-0.7,0.7-0.7c0.1,0,0.3,0.1,0.5,0.2C225.6,17.9,225.7,18.2,225.6,18.4z"
		/>
	<path data-start="16" data-duration="2"  fill="#BEAA8B" d="M236.7,34.3c-1.3,2.4-3.8,4.1-6.2,4.1c-0.6,0-1.4-0.1-1.8-0.2c-1.5,3.6-3.9,8.1-7.8,8
		c-2.9-0.1-3.6-3.2-3.5-5.3c0-2.8,1.1-6,3-8.2c0,0,2.7,1.2,2.1,2.1c-1.7,2.8-2.8,6.8-2.4,8.8c0.2,0.9,0.7,1.5,1.4,1.6
		c2.9,0.4,5.6-5,6.5-7.2c-3.2-1.1-5-4.1-5-6.7c0-2.1,1.8-4.1,3.4-4.1c1.5,0,3.5,1.4,3.5,5c0,1.1-0.2,3.2-0.8,5
		c0.5,0.2,1.1,0.3,1.7,0.3c2.2,0,4-1.6,5.5-4.1C236.6,33.8,236.9,33.9,236.7,34.3z M228.2,37c0.4-1.2,0.8-3.7,0.8-4.8
		c0-2.5-1.1-4.1-2.6-4.1c-1.1,0-1.7,1.2-1.7,2.6C224.7,33.2,226.1,35.8,228.2,37z"/>
	<path data-start="18" data-duration="2" fill="#BEAA8B" d="M260.2,28.5c-7.2,0.7-14.8,22.9-19.8,22.9c-7.5,0,0.7-19.6,0.8-19.8c0.5-1.5-0.5-1.8-1.7-2.2
		c0,0-1.1,2.4-2.9,5c-0.2,0.3-0.5,0-0.8-0.2l1.4-2.4l1.4-2.7c-2.5-0.9-3.5-2.2-3.5-4c0-1.4,1.2-2.6,2.6-2.6c2,0,3.6,2.7,2.3,5.3
		c0.8,0.2,2.6,0.1,4,1.7c1,1.4,0.1,2.9-0.4,4.2c-0.6,2-5.1,16.8-3.2,16.8c4.4,0,12.1-22.3,20-22.8 M237.8,23.2
		c-0.5,0-1.1,0.6-1.1,1.6c0,1.4,0.8,2.6,2.5,2.7C240.2,25.2,239.1,23.2,237.8,23.2z"/>
	<path data-start="20" data-duration="2"  fill="#BEAA8B" d="M179.9,16.5c-1.3,0-1.4-0.1-2.5-0.7c1.4-6.1,2.1-15.8-4.1-15.8c-7,0-8.6,9.5,2.7,16.4
		c-2.3,9.5-11.7,32.3-21,32.3c-0.9,0-2.3-1-2.3-4.4c0-5.6,3.2-13.7,3.2-22.6c0-7.1-1.6-13.7-8.6-14.1c-0.1,0-0.2,0-0.4,0
		c-4.1,0-10.5,7-10.9,17.8c-3.7-3.5-8.5-6.9-13.2-6.9c-1.1,0-2.5,0.8-0.8,0.7l0.3,0.1c5.1,0.1,10.8,6.1,13.9,9.4
		c0.5,0.5,2.4,0,2.3-0.8c-1.8-13.3,5.4-18.8,7.9-18.8c5.1,0,5.7,7,5.7,12.5c0,8.2-2.6,14.4-2.6,20.4c0,6.2,2.5,8.6,5.4,8.6
		c10.1,0,19.8-23.7,22.2-33.5c0.4,0.2,2.3,1.3,2.7,1.3c0.5,0,0.9-0.5,0.9-0.9C180.8,16.9,180.5,16.5,179.9,16.5z M176.3,15.2
		c-8.7-5.2-7.9-14.4-3.6-14.4C178.2,0.8,177.5,9.8,176.3,15.2z"/>
</g>
</svg>
